#N canvas 37 20 953 814 12;
#X obj 17 10 cnv 15 900 45 empty empty zconf 10 22 0 24 -260818 -1
0;
#X text 263 33 http://grrrr.org;
#X text 263 13 zeroconf networking objects \, (C)2006 Thomas Grill
;
#X obj 17 68 cnv 15 400 380 empty empty empty 10 22 0 24 -233017 -1
0;
#X obj 32 205 zconf.domains;
#X obj 32 227 print DOMAINS;
#X msg 100 166 getmode;
#X msg 32 167 mode \$1;
#X obj 32 113 vradio 15 1 0 3 empty empty mode 0 -6 0 8 -262144 -1
-1 0;
#X text 56 111 off;
#X text 56 127 domains for browsing;
#X text 56 143 domains for registration;
#X obj 32 338 zconf.meta;
#X obj 32 360 print META;
#X obj 32 315 tgl 15 0 empty empty empty 0 -6 0 8 -262144 -1 -1 1 1
;
#X msg 50 312 active \$1;
#X text 30 290 browse for all available services;
#X msg 200 190 getinterface;
#X msg 198 336 getinterface;
#X msg 198 313 interface 0;
#X msg 200 167 interface 0;
#X text 299 167 any (default);
#X text 294 312 any (default);
#X text 31 381 add/remove type domain interface more_coming;
#X text 30 248 add/remove domain interface more_coming;
#X text 55 403 meta might need a while to realize;
#X text 54 420 unregistration of services;
#X obj 17 462 cnv 15 400 320 empty empty empty 10 22 0 24 -233017 -1
0;
#X obj 30 663 zconf.service;
#X obj 30 685 print SERVICE;
#X text 42 558 optional;
#X msg 45 579 name player;
#X msg 155 579 getname;
#X msg 45 601 domain local;
#X msg 155 601 getdomain;
#X text 235 602 domain;
#X msg 30 523 gettype \, getport;
#X text 28 755 the parameters are complete and unchanged.;
#X text 28 738 The service remains registered as long as;
#X text 268 526 unregister;
#X msg 285 500 type;
#X text 261 624 interface;
#X msg 155 623 getinterface;
#X msg 30 500 type _osc._udp \, port 8765;
#X msg 45 623 interface -1;
#X text 235 580 service name;
#X text 29 705 service servicename type domain;
#X obj 435 68 cnv 15 480 350 empty empty empty 10 22 0 24 -233017 -1
0;
#X obj 449 298 zconf.browse;
#X obj 449 320 print BROWSE;
#X msg 449 116 type _ssh._tcp;
#X msg 449 165 type _osc._udp;
#X msg 686 116 domain local;
#X msg 449 138 type _ssh._tcp.;
#X text 684 165 domain is optional;
#X text 578 127 the same;
#X msg 686 138 domain local.;
#X text 804 127 the same;
#X msg 596 197 gettype;
#X msg 686 197 getdomain;
#X text 448 368 As long as the browser is active \, added or removed
;
#X text 447 385 services with the given parameters are output.;
#X msg 449 197 type;
#X text 489 197 switch off;
#X msg 686 300 getinterface;
#X text 791 250 only local;
#X msg 686 229 interface 0;
#X msg 686 251 interface -1;
#X msg 686 273 interface 2;
#X text 783 272 some other;
#X text 783 227 any (default);
#X msg 449 231 type _http._tcp;
#X text 447 341 add/remove servicename type domain interface more_coming
;
#X obj 435 432 cnv 15 480 350 empty empty empty 10 22 0 24 -233017
-1 0;
#X obj 448 593 zconf.resolve;
#X obj 448 615 print RESOLVE;
#X text 660 515 domain is "local" by default;
#X text 447 690 A response will only be triggered as soon as a;
#X text 512 531 off;
#X text 446 707 service is really existing (but only once!);
#X text 660 530 interface is "any" by default;
#X msg 448 531 resolve;
#X msg 448 474 resolve _ssh._tcp minimac local 0;
#X msg 448 559 resolve _http._tcp Laptop;
#X obj 768 569 route add;
#X msg 768 613 resolve \$2 \$1 \$3;
#X obj 768 591 list;
#X text 472 724 ATTENTION: browse might output multiple services;
#X text 471 741 which are here dumped into resolve. Only the last;
#X text 472 759 one will actually be resolved though.;
#X obj 22 73 cnv 15 390 20 empty empty empty 10 22 0 24 -262144 -1
0;
#X text 30 74 browse for available domains;
#X obj 440 72 cnv 15 470 20 empty empty empty 10 22 0 24 -262144 -1
0;
#X obj 22 467 cnv 15 390 20 empty empty empty 10 22 0 24 -262144 -1
0;
#X text 29 467 register a service;
#X text 448 72 browse for available services;
#X obj 440 437 cnv 15 470 20 empty empty empty 10 22 0 24 -262144 -1
0;
#X text 448 438 resolve service for actual networking parameters;
#X msg 448 496 resolve _osc._udp player;
#X text 660 497 type servicename;
#X msg 449 254 type _daap._tcp;
#X text 445 664 txtrecord recordname data;
#X text 446 643 resolve servicename type domain interface host ip port
rec;
#X connect 4 0 5 0;
#X connect 6 0 4 0;
#X connect 7 0 4 0;
#X connect 8 0 7 0;
#X connect 12 0 13 0;
#X connect 14 0 15 0;
#X connect 15 0 12 0;
#X connect 17 0 4 0;
#X connect 18 0 12 0;
#X connect 19 0 12 0;
#X connect 20 0 4 0;
#X connect 28 0 29 0;
#X connect 31 0 28 0;
#X connect 32 0 28 0;
#X connect 33 0 28 0;
#X connect 34 0 28 0;
#X connect 36 0 28 0;
#X connect 40 0 28 0;
#X connect 42 0 28 0;
#X connect 43 0 28 0;
#X connect 44 0 28 0;
#X connect 48 0 49 0;
#X connect 48 0 84 0;
#X connect 50 0 48 0;
#X connect 51 0 48 0;
#X connect 52 0 48 0;
#X connect 53 0 48 0;
#X connect 56 0 48 0;
#X connect 58 0 48 0;
#X connect 59 0 48 0;
#X connect 62 0 48 0;
#X connect 64 0 48 0;
#X connect 66 0 48 0;
#X connect 67 0 48 0;
#X connect 68 0 48 0;
#X connect 71 0 48 0;
#X connect 74 0 75 0;
#X connect 81 0 74 0;
#X connect 82 0 74 0;
#X connect 83 0 74 0;
#X connect 84 0 86 0;
#X connect 85 0 74 0;
#X connect 86 0 85 0;
#X connect 98 0 74 0;
#X connect 100 0 48 0;
